<?xml version="1.0" encoding="utf-8"?>
<!-- Generator: Adobe Illustrator 15.0.2, SVG Export Plug-In . SVG Version: 6.00 Build 0)  -->
<!DOCTYPE svg PUBLIC "-//W3C//DTD SVG 1.1//EN" "http://www.w3.org/Graphics/SVG/1.1/DTD/svg11.dtd">
<svg version="1.1" id="Layer_1" xmlns="http://www.w3.org/2000/svg" xmlns:xlink="http://www.w3.org/1999/xlink" x="0px" y="0px"
	 width="401.98px" height="127.494px" viewBox="0 0 401.98 127.494" enable-background="new 0 0 401.98 127.494"
	 xml:space="preserve">
<g>
	<g>
		<g>
			<g>
				<linearGradient id="SVGID_1_" gradientUnits="userSpaceOnUse" x1="32.3906" y1="94.9971" x2="91.9146" y2="33.3581">
					<stop  offset="0.12" style="stop-color:#000000"/>
					<stop  offset="0.12" style="stop-color:#BCBEC0"/>
					<stop  offset="0.2362" style="stop-color:#000000"/>
					<stop  offset="0.442" style="stop-color:#000000"/>
					<stop  offset="0.56" style="stop-color:#6D6E71"/>
					<stop  offset="0.56" style="stop-color:#000000"/>
					<stop  offset="0.81" style="stop-color:#77787B"/>
					<stop  offset="0.81" style="stop-color:#000000"/>
					<stop  offset="1" style="stop-color:#000000"/>
				</linearGradient>
				<path fill="url(#SVGID_1_)" d="M37.806,101.28c0.003-0.992,0.793-1.788,1.772-1.821l0.007-0.007h0.026
					c0.013,0,0.02-0.007,0.023,0.007c0.013,0,0.023,0,0.036-0.007l29.506,0.007c19.551-0.007,35.459-15.915,35.466-35.467
					c0-19.557-15.905-35.459-35.462-35.465L39.591,28.52l-0.003-0.025c-0.963-0.039-1.729-0.819-1.733-1.789
					c0-0.973,0.77-1.749,1.733-1.788v-0.026h29.588c21.565,0,39.105,17.541,39.102,39.102c0.003,21.563-17.537,39.103-39.102,39.103
					l-29.464-0.007c-0.032,0-0.055,0.014-0.078,0.02C38.628,103.102,37.813,102.285,37.806,101.28z"/>
				<linearGradient id="SVGID_2_" gradientUnits="userSpaceOnUse" x1="22.4248" y1="95.5615" x2="83.993" y2="31.8058">
					<stop  offset="0.12" style="stop-color:#000000"/>
					<stop  offset="0.12" style="stop-color:#BCBEC0"/>
					<stop  offset="0.2362" style="stop-color:#000000"/>
					<stop  offset="0.442" style="stop-color:#000000"/>
					<stop  offset="0.56" style="stop-color:#6D6E71"/>
					<stop  offset="0.56" style="stop-color:#000000"/>
					<stop  offset="0.81" style="stop-color:#77787B"/>
					<stop  offset="0.81" style="stop-color:#000000"/>
					<stop  offset="1" style="stop-color:#000000"/>
				</linearGradient>
				<path fill="url(#SVGID_2_)" d="M27.916,82.219c0-0.829,0.679-1.508,1.505-1.502c0.016,0,0.036,0.007,0.052,0.014v-0.026h39.203
					c4.462-0.007,8.656-1.743,11.813-4.899c3.163-3.162,4.902-7.359,4.896-11.813c0.003-4.458-1.736-8.655-4.896-11.812
					c-3.16-3.163-7.351-4.899-11.813-4.899L29.47,47.295l0.007-0.029c-0.03,0.003-0.036,0.01-0.052,0.01
					c-0.839,0.006-1.508-0.663-1.499-1.498c-0.01-0.833,0.66-1.502,1.501-1.506c0.01,0.007,0.029,0.007,0.046,0.014v-0.014h39.213
					c10.873-0.006,19.721,8.846,19.718,19.715c-0.003,5.268-2.06,10.219-5.787,13.947c-3.728,3.727-8.672,5.783-13.937,5.777
					l-39.21,0.006l0.007-0.004c-0.023,0-0.04,0.008-0.059,0.008C28.595,83.721,27.923,83.048,27.916,82.219z"/>
				<linearGradient id="SVGID_3_" gradientUnits="userSpaceOnUse" x1="33.6514" y1="96.125" x2="93.1352" y2="34.5277">
					<stop  offset="0.12" style="stop-color:#000000"/>
					<stop  offset="0.12" style="stop-color:#BCBEC0"/>
					<stop  offset="0.2362" style="stop-color:#000000"/>
					<stop  offset="0.442" style="stop-color:#000000"/>
					<stop  offset="0.56" style="stop-color:#6D6E71"/>
					<stop  offset="0.56" style="stop-color:#000000"/>
					<stop  offset="0.81" style="stop-color:#77787B"/>
					<stop  offset="0.81" style="stop-color:#000000"/>
					<stop  offset="1" style="stop-color:#000000"/>
				</linearGradient>
				<path fill="url(#SVGID_3_)" d="M48.13,88.355c0-0.973,0.787-1.756,1.756-1.756c0.023-0.008,0.046,0.002,0.065,0.006
					l19.071,0.004c6.028-0.004,11.708-2.357,15.983-6.63c4.276-4.278,6.623-9.958,6.629-15.987
					c0.003-6.027-2.353-11.707-6.629-15.979c-4.282-4.286-9.955-6.636-15.983-6.636L49.86,41.381l-0.003-0.037
					c-0.911-0.055-1.639-0.786-1.639-1.72c0.003-0.927,0.725-1.668,1.642-1.727l-0.003-0.049l19.166-0.007
					c6.968,0.014,13.532,2.729,18.48,7.674c4.941,4.945,7.66,11.512,7.66,18.471c0,6.979-2.719,13.539-7.667,18.484l0,0
					c-4.941,4.944-11.505,7.666-18.474,7.666L49.86,90.144v-0.039C48.903,90.082,48.136,89.314,48.13,88.355z"/>
				<linearGradient id="SVGID_4_" gradientUnits="userSpaceOnUse" x1="21.9663" y1="95.084" x2="83.5078" y2="31.3559">
					<stop  offset="0.12" style="stop-color:#000000"/>
					<stop  offset="0.12" style="stop-color:#BCBEC0"/>
					<stop  offset="0.2362" style="stop-color:#000000"/>
					<stop  offset="0.442" style="stop-color:#000000"/>
					<stop  offset="0.56" style="stop-color:#6D6E71"/>
					<stop  offset="0.56" style="stop-color:#000000"/>
					<stop  offset="0.81" style="stop-color:#77787B"/>
					<stop  offset="0.81" style="stop-color:#000000"/>
					<stop  offset="1" style="stop-color:#000000"/>
				</linearGradient>
				<path fill="url(#SVGID_4_)" d="M20.197,95.092c0.003-1.012,0.813-1.821,1.821-1.821c0.013,0.003,0.03,0.007,0.042,0.013v-0.039
					l46.694-0.006c16.13,0,29.248-13.115,29.251-29.252c-0.003-16.124-13.121-29.245-29.245-29.245L22.24,34.748
					c-0.079,0.003-0.147,0.039-0.229,0.045c-1.002-0.006-1.818-0.822-1.821-1.82c0.003-1.006,0.822-1.825,1.821-1.825
					c0.02,0.003,0.029,0.017,0.049,0.011v-0.057l46.697,0.004c18.131-0.004,32.881,14.76,32.884,32.887
					c0,18.135-14.753,32.889-32.884,32.889H22.146c-0.046,0.003-0.082,0.025-0.13,0.029C21.01,96.91,20.197,96.098,20.197,95.092z"
					/>
			</g>
		</g>
		<linearGradient id="SVGID_5_" gradientUnits="userSpaceOnUse" x1="33.6177" y1="95.5947" x2="92.7468" y2="34.3647">
			<stop  offset="0.12" style="stop-color:#000000"/>
			<stop  offset="0.12" style="stop-color:#BCBEC0"/>
			<stop  offset="0.2362" style="stop-color:#000000"/>
			<stop  offset="0.442" style="stop-color:#000000"/>
			<stop  offset="0.56" style="stop-color:#6D6E71"/>
			<stop  offset="0.56" style="stop-color:#000000"/>
			<stop  offset="0.81" style="stop-color:#77787B"/>
			<stop  offset="0.81" style="stop-color:#000000"/>
			<stop  offset="1" style="stop-color:#000000"/>
		</linearGradient>
		<path fill="url(#SVGID_5_)" d="M58.574,76.21c0.003-0.813,0.666-1.472,1.482-1.472c0.026,0,0.056,0.013,0.082,0.013h0.003
			l8.686-0.007c2.885,0.007,5.607-1.129,7.66-3.172c2.046-2.054,3.186-4.782,3.179-7.674c0.003-2.896-1.126-5.611-3.179-7.668
			c-2.05-2.049-4.608-2.898-7.533-3.106l-11.518,0.098c-2.863,0-5.37,2.503-5.373,5.372c-0.003,1.43,0.561,2.778,1.576,3.793
			c1.019,1.019,2.363,1.58,3.786,1.576c0,0,7.785-0.107,7.912-0.101c0.819,0.078,1.446,0.747,1.439,1.56
			c0,0.422-0.164,0.811-0.457,1.104c-0.261,0.262-0.614,0.432-1.035,0.464l-7.853,0.144c-2.278,0-4.413-0.908-6.025-2.514
			c-1.622-1.612-2.517-3.746-2.513-6.025c0.006-2.277,0.888-4.426,2.503-6.037c1.612-1.609,3.76-2.498,6.051-2.498l11.505,0.036
			c7.625-0.003,13.686,6.192,13.683,13.807c0.003,3.682-1.439,7.147-4.047,9.753l0,0c-2.614,2.617-6.074,4.054-9.762,4.057
			l-8.692-0.003l0.003-0.029c-0.02-0.007-0.049,0.02-0.082,0.01C59.244,77.688,58.584,77.029,58.574,76.21z"/>
	</g>
	<g>
		<linearGradient id="SVGID_6_" gradientUnits="userSpaceOnUse" x1="187.4155" y1="74.623" x2="187.4155" y2="53.2961">
			<stop  offset="0.28" style="stop-color:#000000"/>
			<stop  offset="0.28" style="stop-color:#6D6E71"/>
			<stop  offset="0.68" style="stop-color:#000000"/>
			<stop  offset="0.68" style="stop-color:#424244"/>
			<stop  offset="0.68" style="stop-color:#4D4D4F"/>
			<stop  offset="0.7652" style="stop-color:#444345"/>
			<stop  offset="0.9082" style="stop-color:#0A0A0A"/>
			<stop  offset="0.9199" style="stop-color:#000000"/>
		</linearGradient>
		<path fill="url(#SVGID_6_)" d="M201.003,54.024c0.496-0.597,1.111-0.894,1.841-0.894c0.662,0,1.227,0.231,1.693,0.695
			c0.465,0.467,0.695,1.031,0.695,1.693c0,0.594-0.166,1.074-0.498,1.443l-0.051,0.052L192.642,73.24
			c-0.598,0.76-1.352,1.38-2.266,1.866c-0.914,0.479-1.9,0.718-2.961,0.718c-0.995,0-1.936-0.215-2.813-0.649
			c-0.879-0.431-1.616-1.024-2.213-1.788l-12.097-16.176c-0.199-0.232-0.366-0.486-0.496-0.774
			c-0.134-0.277-0.199-0.587-0.199-0.917c0-0.662,0.231-1.227,0.695-1.693c0.464-0.464,1.031-0.695,1.69-0.695
			c0.8,0,1.43,0.313,1.893,0.943l11.598,15.48c0.231,0.264,0.521,0.555,0.871,0.871c0.346,0.316,0.705,0.474,1.07,0.474
			c0.366,0,0.722-0.157,1.07-0.474c0.35-0.316,0.621-0.607,0.82-0.871L201.003,54.024z"/>
		<linearGradient id="SVGID_7_" gradientUnits="userSpaceOnUse" x1="272.7212" y1="74.623" x2="272.7212" y2="53.2957">
			<stop  offset="0.28" style="stop-color:#000000"/>
			<stop  offset="0.28" style="stop-color:#6D6E71"/>
			<stop  offset="0.68" style="stop-color:#000000"/>
			<stop  offset="0.68" style="stop-color:#424244"/>
			<stop  offset="0.68" style="stop-color:#4D4D4F"/>
			<stop  offset="0.7652" style="stop-color:#444345"/>
			<stop  offset="0.9082" style="stop-color:#0A0A0A"/>
			<stop  offset="0.9199" style="stop-color:#000000"/>
		</linearGradient>
		<path fill="url(#SVGID_7_)" d="M291.536,53.826c0.463,0.467,0.697,1.031,0.697,1.693s-0.234,1.227-0.697,1.691
			c-0.463,0.467-1.031,0.697-1.691,0.697h-14.74v14.531c0,0.666-0.229,1.228-0.691,1.688c-0.463,0.471-1.031,0.702-1.691,0.702
			c-0.666,0-1.227-0.231-1.689-0.702c-0.471-0.46-0.699-1.021-0.699-1.688V57.908h-14.93c-0.6-0.068-1.115-0.326-1.547-0.767
			c-0.43-0.454-0.646-0.992-0.646-1.622c0-0.662,0.236-1.227,0.699-1.693c0.463-0.464,1.025-0.695,1.691-0.695h34.244
			C290.504,53.131,291.073,53.362,291.536,53.826z"/>
		<g>
			<linearGradient id="SVGID_8_" gradientUnits="userSpaceOnUse" x1="145.4199" y1="74.6191" x2="145.4199" y2="53.2962">
				<stop  offset="0.28" style="stop-color:#000000"/>
				<stop  offset="0.28" style="stop-color:#6D6E71"/>
				<stop  offset="0.68" style="stop-color:#000000"/>
				<stop  offset="0.68" style="stop-color:#424244"/>
				<stop  offset="0.68" style="stop-color:#4D4D4F"/>
				<stop  offset="0.7652" style="stop-color:#444345"/>
				<stop  offset="0.9082" style="stop-color:#0A0A0A"/>
				<stop  offset="0.9199" style="stop-color:#000000"/>
			</linearGradient>
			<path fill="url(#SVGID_8_)" d="M162.231,57.908c0.662,0,1.227-0.23,1.693-0.697c0.463-0.465,0.695-1.029,0.695-1.691
				s-0.232-1.227-0.695-1.693c-0.467-0.464-1.031-0.695-1.693-0.695h-28.518c-1.426,0-2.706,0.332-3.835,0.995
				c-1.126,0.663-2.089,1.518-2.885,2.562c-0.291,0.386-0.532,0.804-0.773,1.221H162.231z"/>
			<linearGradient id="SVGID_9_" gradientUnits="userSpaceOnUse" x1="143.959" y1="74.623" x2="143.959" y2="53.2942">
				<stop  offset="0.28" style="stop-color:#000000"/>
				<stop  offset="0.28" style="stop-color:#6D6E71"/>
				<stop  offset="0.68" style="stop-color:#000000"/>
				<stop  offset="0.68" style="stop-color:#424244"/>
				<stop  offset="0.68" style="stop-color:#4D4D4F"/>
				<stop  offset="0.7652" style="stop-color:#444345"/>
				<stop  offset="0.9082" style="stop-color:#0A0A0A"/>
				<stop  offset="0.9199" style="stop-color:#000000"/>
			</linearGradient>
			<path fill="url(#SVGID_9_)" d="M135.355,66.365h17.208c0.663,0,1.224-0.229,1.691-0.691c0.464-0.467,0.698-1.031,0.698-1.694
				c0-0.665-0.234-1.228-0.698-1.69c-0.467-0.463-1.028-0.699-1.691-0.699h-17.208c-0.663,0-1.227,0.236-1.694,0.699
				c-0.463,0.463-0.695,1.025-0.695,1.69c0,0.663,0.232,1.228,0.695,1.694C134.128,66.137,134.693,66.365,135.355,66.365z"/>
			<linearGradient id="SVGID_10_" gradientUnits="userSpaceOnUse" x1="144.5879" y1="74.623" x2="144.5879" y2="53.2942">
				<stop  offset="0.28" style="stop-color:#000000"/>
				<stop  offset="0.28" style="stop-color:#6D6E71"/>
				<stop  offset="0.68" style="stop-color:#000000"/>
				<stop  offset="0.68" style="stop-color:#424244"/>
				<stop  offset="0.68" style="stop-color:#4D4D4F"/>
				<stop  offset="0.7652" style="stop-color:#444345"/>
				<stop  offset="0.9082" style="stop-color:#0A0A0A"/>
				<stop  offset="0.9199" style="stop-color:#000000"/>
			</linearGradient>
			<path fill="url(#SVGID_10_)" d="M162.231,70.051h-27.424c-1.162,0-2.099-0.205-2.813-0.623c-0.711-0.415-1.276-0.921-1.691-1.516
				c-0.415-0.597-0.695-1.253-0.845-1.967c-0.15-0.715-0.225-1.371-0.225-1.966c0-0.601,0.075-1.257,0.225-1.965
				c0.029-0.149,0.095-0.287,0.137-0.435h-4.782c-0.167,0.801-0.258,1.604-0.258,2.399c0,1.228,0.199,2.487,0.597,3.776
				c0.398,1.299,0.969,2.471,1.717,3.516s1.648,1.899,2.712,2.565c1.061,0.659,2.272,0.992,3.633,0.992h29.017
				c0.662,0,1.227-0.231,1.693-0.702c0.463-0.46,0.695-1.021,0.695-1.688c0-0.662-0.232-1.227-0.695-1.69
				C163.458,70.285,162.894,70.051,162.231,70.051z"/>
		</g>
		<g>
			<linearGradient id="SVGID_11_" gradientUnits="userSpaceOnUse" x1="318.1558" y1="74.6191" x2="318.1558" y2="53.2962">
				<stop  offset="0.28" style="stop-color:#000000"/>
				<stop  offset="0.28" style="stop-color:#6D6E71"/>
				<stop  offset="0.68" style="stop-color:#000000"/>
				<stop  offset="0.68" style="stop-color:#424244"/>
				<stop  offset="0.68" style="stop-color:#4D4D4F"/>
				<stop  offset="0.7652" style="stop-color:#444345"/>
				<stop  offset="0.9082" style="stop-color:#0A0A0A"/>
				<stop  offset="0.9199" style="stop-color:#000000"/>
			</linearGradient>
			<path fill="url(#SVGID_11_)" d="M334.965,57.908c0.666,0,1.227-0.23,1.684-0.697c0.471-0.465,0.705-1.029,0.705-1.691
				s-0.234-1.227-0.705-1.693c-0.457-0.464-1.018-0.695-1.684-0.695h-28.527c-1.422,0-2.701,0.332-3.824,0.995
				c-1.137,0.663-2.09,1.518-2.887,2.562c-0.299,0.386-0.535,0.804-0.77,1.221H334.965z"/>
			<linearGradient id="SVGID_12_" gradientUnits="userSpaceOnUse" x1="316.687" y1="74.623" x2="316.687" y2="53.2942">
				<stop  offset="0.28" style="stop-color:#000000"/>
				<stop  offset="0.28" style="stop-color:#6D6E71"/>
				<stop  offset="0.68" style="stop-color:#000000"/>
				<stop  offset="0.68" style="stop-color:#424244"/>
				<stop  offset="0.68" style="stop-color:#4D4D4F"/>
				<stop  offset="0.7652" style="stop-color:#444345"/>
				<stop  offset="0.9082" style="stop-color:#0A0A0A"/>
				<stop  offset="0.9199" style="stop-color:#000000"/>
			</linearGradient>
			<path fill="url(#SVGID_12_)" d="M308.084,66.365h17.207c0.666,0,1.227-0.229,1.697-0.691c0.457-0.467,0.691-1.031,0.691-1.694
				c0-0.665-0.234-1.228-0.691-1.69c-0.471-0.463-1.031-0.699-1.697-0.699h-17.207c-0.666,0-1.229,0.236-1.686,0.699
				c-0.469,0.463-0.705,1.025-0.705,1.69c0,0.663,0.236,1.228,0.705,1.694C306.856,66.137,307.418,66.365,308.084,66.365z"/>
			<linearGradient id="SVGID_13_" gradientUnits="userSpaceOnUse" x1="317.3198" y1="74.623" x2="317.3198" y2="53.2942">
				<stop  offset="0.28" style="stop-color:#000000"/>
				<stop  offset="0.28" style="stop-color:#6D6E71"/>
				<stop  offset="0.68" style="stop-color:#000000"/>
				<stop  offset="0.68" style="stop-color:#424244"/>
				<stop  offset="0.68" style="stop-color:#4D4D4F"/>
				<stop  offset="0.7652" style="stop-color:#444345"/>
				<stop  offset="0.9082" style="stop-color:#0A0A0A"/>
				<stop  offset="0.9199" style="stop-color:#000000"/>
			</linearGradient>
			<path fill="url(#SVGID_13_)" d="M334.965,70.051h-27.43c-1.162,0-2.09-0.205-2.807-0.623c-0.719-0.415-1.281-0.921-1.697-1.516
				c-0.406-0.597-0.693-1.253-0.836-1.967c-0.156-0.715-0.236-1.371-0.236-1.966c0-0.601,0.08-1.257,0.236-1.965
				c0.025-0.149,0.092-0.287,0.131-0.435h-4.779c-0.17,0.801-0.262,1.604-0.262,2.399c0,1.228,0.197,2.487,0.602,3.776
				c0.391,1.299,0.967,2.471,1.711,3.516c0.756,1.045,1.656,1.899,2.715,2.565c1.057,0.659,2.271,0.992,3.629,0.992h29.023
				c0.666,0,1.227-0.231,1.684-0.702c0.471-0.46,0.705-1.021,0.705-1.688c0-0.662-0.234-1.227-0.705-1.69
				C336.192,70.285,335.631,70.051,334.965,70.051z"/>
		</g>
		<linearGradient id="SVGID_14_" gradientUnits="userSpaceOnUse" x1="229.2202" y1="74.623" x2="229.2202" y2="53.2957">
			<stop  offset="0.28" style="stop-color:#000000"/>
			<stop  offset="0.28" style="stop-color:#6D6E71"/>
			<stop  offset="0.68" style="stop-color:#000000"/>
			<stop  offset="0.68" style="stop-color:#424244"/>
			<stop  offset="0.68" style="stop-color:#4D4D4F"/>
			<stop  offset="0.7652" style="stop-color:#444345"/>
			<stop  offset="0.9082" style="stop-color:#0A0A0A"/>
			<stop  offset="0.9199" style="stop-color:#000000"/>
		</linearGradient>
		<path fill="url(#SVGID_14_)" d="M248.881,60.246c-0.398-1.26-0.973-2.406-1.717-3.434c-0.744-1.025-1.65-1.884-2.715-2.563
			c-1.057-0.682-2.271-1.055-3.629-1.119h-22.697c-1.43,0-2.703,0.332-3.832,0.995c-1.131,0.663-2.09,1.518-2.887,2.562
			c-0.293,0.386-0.535,0.804-0.775,1.221h28.65c1.123,0,2.049,0.209,2.781,0.621c0.73,0.414,1.305,0.924,1.723,1.518
			c0.412,0.598,0.691,1.256,0.842,1.968c0.15,0.708,0.223,1.364,0.223,1.965c0,0.595-0.072,1.251-0.223,1.966
			c-0.15,0.714-0.43,1.37-0.842,1.967c-0.418,0.595-0.992,1.101-1.723,1.516c-0.732,0.418-1.658,0.623-2.781,0.623h-20.113
			c-1.154,0-2.096-0.205-2.813-0.623c-0.713-0.415-1.273-0.921-1.691-1.516c-0.41-0.597-0.697-1.253-0.842-1.967
			c-0.156-0.715-0.229-1.371-0.229-1.966c0-0.601,0.072-1.257,0.229-1.965c0.025-0.149,0.092-0.287,0.131-0.435h-4.727
			c-0.17,0.801-0.262,1.604-0.262,2.399c0,1.228,0.197,2.472,0.602,3.734c0.391,1.26,0.965,2.401,1.709,3.437
			c0.752,1.025,1.658,1.873,2.717,2.556c1.064,0.686,2.271,1.058,3.637,1.123h22.697c1.422,0,2.701-0.333,3.824-0.992
			c1.129-0.666,2.096-1.521,2.887-2.565c0.795-1.045,1.408-2.207,1.82-3.486c0.412-1.275,0.621-2.545,0.621-3.806
			C249.477,62.752,249.28,61.509,248.881,60.246z"/>
		<g>
			<linearGradient id="SVGID_15_" gradientUnits="userSpaceOnUse" x1="362.1147" y1="74.6191" x2="362.1147" y2="53.2962">
				<stop  offset="0.28" style="stop-color:#000000"/>
				<stop  offset="0.28" style="stop-color:#6D6E71"/>
				<stop  offset="0.68" style="stop-color:#000000"/>
				<stop  offset="0.68" style="stop-color:#424244"/>
				<stop  offset="0.68" style="stop-color:#4D4D4F"/>
				<stop  offset="0.7652" style="stop-color:#444345"/>
				<stop  offset="0.9082" style="stop-color:#0A0A0A"/>
				<stop  offset="0.9199" style="stop-color:#000000"/>
			</linearGradient>
			<path fill="url(#SVGID_15_)" d="M379.172,57.908c0.666,0,1.227-0.23,1.697-0.697c0.471-0.465,0.691-1.029,0.691-1.691
				s-0.221-1.227-0.691-1.693c-0.471-0.464-1.031-0.695-1.697-0.695h-29.01c-1.424,0-2.703,0.332-3.838,0.995
				c-1.123,0.663-2.09,1.518-2.887,2.562c-0.287,0.386-0.521,0.804-0.77,1.221H379.172z"/>
			<linearGradient id="SVGID_16_" gradientUnits="userSpaceOnUse" x1="361.2788" y1="74.623" x2="361.2788" y2="53.2942">
				<stop  offset="0.28" style="stop-color:#000000"/>
				<stop  offset="0.28" style="stop-color:#6D6E71"/>
				<stop  offset="0.68" style="stop-color:#000000"/>
				<stop  offset="0.68" style="stop-color:#424244"/>
				<stop  offset="0.68" style="stop-color:#4D4D4F"/>
				<stop  offset="0.7652" style="stop-color:#444345"/>
				<stop  offset="0.9082" style="stop-color:#0A0A0A"/>
				<stop  offset="0.9199" style="stop-color:#000000"/>
			</linearGradient>
			<path fill="url(#SVGID_16_)" d="M379.172,70.051h-27.965c-1.162,0-2.104-0.205-2.809-0.623c-0.717-0.415-1.279-0.921-1.697-1.516
				c-0.416-0.597-0.691-1.253-0.848-1.967c-0.145-0.715-0.223-1.371-0.223-1.966c0-0.601,0.078-1.257,0.223-1.965
				c0.039-0.149,0.092-0.287,0.143-0.435h-4.738c-0.156,0.801-0.262,1.604-0.262,2.399c0,1.228,0.209,2.487,0.602,3.776
				c0.404,1.299,0.979,2.471,1.723,3.516s1.645,1.899,2.717,2.565c1.057,0.659,2.271,0.992,3.629,0.992h29.506
				c0.666,0,1.227-0.231,1.697-0.702c0.471-0.46,0.691-1.021,0.691-1.688c0-0.662-0.221-1.227-0.691-1.69
				S379.838,70.051,379.172,70.051z"/>
		</g>
	</g>
</g>
</svg>
